<?xml version="1.0" encoding="UTF-8" standalone="no"?><!DOCTYPE svg PUBLIC "-//W3C//DTD SVG 1.1//EN" "http://www.w3.org/Graphics/SVG/1.1/DTD/svg11.dtd"><svg width="100%" height="100%" viewBox="0 0 2592 2992" version="1.1" xmlns="http://www.w3.org/2000/svg" xmlns:xlink="http://www.w3.org/1999/xlink" xml:space="preserve" xmlns:serif="http://www.serif.com/" style="fill-rule:evenodd;clip-rule:evenodd;stroke-linecap:round;stroke-linejoin:round;"><path d="M2589.7,2242.76l-1294.86,747.566l-1294.84,-747.571l0,-1495.17l1294.85,-747.588l1294.86,747.588l0,1495.17Z" style="fill:#585858;fill-rule:nonzero;"/><path id="Vector" d="M1854.07,1450.05l-0,440.15c-0,145.854 -237.521,264.088 -530.521,264.088c-293,-0 -530.521,-118.234 -530.521,-264.088l0,-440.15m1061.04,0l-0,-440.15m-0,440.15c-0,145.858 -237.521,264.092 -530.521,264.092c-293,-0 -530.521,-118.233 -530.521,-264.092m1061.04,-440.15c-0,-145.85 -237.521,-264.087 -530.521,-264.087c-293,-0 -530.521,118.237 -530.521,264.087m1061.04,0c-0,145.854 -237.521,264.092 -530.521,264.092c-293,-0 -530.521,-118.238 -530.521,-264.092m0,440.15l0,-440.15" style="fill:none;fill-rule:nonzero;stroke:#f4f4f4;stroke-width:176.46px;"/></svg>